# xmcd
#
# Track frame offsets: 
#        183
#        13978
#        28543
#        46990
#        60770
#        76883
#        93805
#        110230
#        125270
#        147413
#        165780
#        183275
#        200420
#        217560
#        235555
#        247305
#
# Disc length: 3573 seconds
#
# Revision: 1
# Processed by: cddbd v1.5.2PL0 Copyright (c) Steve Scherf et al.
# Submitted via: ExactAudioCopy v0.99pb5
#
DISCID=c50df310
DTITLE=?????? - ???????????????
DYEAR=1986
DGENRE=Jazz
TTITLE0=?????????
TTITLE1=??????????
TTITLE2=??????????????????
TTITLE3=???????????
TTITLE4=???????
TTITLE5=???????????????
TTITLE6=??????
TTITLE7=????????????????????
TTITLE8=????????
TTITLE9=?????
TTITLE10=????????????
TTITLE11=?????
TTITLE12=?????????
TTITLE13=?
TTITLE14=????????
TTITLE15=?????????
EXTD=YEAR: 1986
EXTT0=
EXTT1=
EXTT2=
EXTT3=
EXTT4=
EXTT5=
EXTT6=
EXTT7=
EXTT8=
EXTT9=
EXTT10=
EXTT11=
EXTT12=
EXTT13=
EXTT14=
EXTT15=
PLAYORDER=
